<svg width="131" height="175" viewBox="0 0 131 175" fill="none" xmlns="http://www.w3.org/2000/svg">
<path fill-rule="evenodd" clip-rule="evenodd" d="M0 0H200V175H0V0ZM0.3125 0.3125H24.6875V24.6875H0.3125V0.3125ZM25.3125 0.3125H49.6875V24.6875H25.3125V0.3125ZM74.6875 0.3125H50.3125V24.6875H74.6875V0.3125ZM75.3125 0.3125H99.6875V24.6875H75.3125V0.3125ZM124.688 0.3125H100.312V24.6875H124.688V0.3125ZM125.312 0.3125H149.688V24.6875H125.312V0.3125ZM174.688 0.3125H150.312V24.6875H174.688V0.3125ZM175.312 0.3125H199.688V24.6875H175.312V0.3125ZM24.6875 25.3125H0.3125V49.6875H24.6875V25.3125ZM25.3125 25.3125H49.6875V49.6875H25.3125V25.3125ZM74.6875 25.3125H50.3125V49.6875H74.6875V25.3125ZM75.3125 25.3125H99.6875V49.6875H75.3125V25.3125ZM124.688 25.3125H100.312V49.6875H124.688V25.3125ZM125.312 25.3125H149.688V49.6875H125.312V25.3125ZM174.688 25.3125H150.312V49.6875H174.688V25.3125ZM175.312 25.3125H199.688V49.6875H175.312V25.3125ZM24.6875 50.3125H0.3125V74.6875H24.6875V50.3125ZM25.3125 50.3125H49.6875V74.6875H25.3125V50.3125ZM74.6875 50.3125H50.3125V74.6875H74.6875V50.3125ZM75.3125 50.3125H99.6875V74.6875H75.3125V50.3125ZM124.688 50.3125H100.312V74.6875H124.688V50.3125ZM125.312 50.3125H149.688V74.6875H125.312V50.3125ZM174.688 50.3125H150.312V74.6875H174.688V50.3125ZM175.312 50.3125H199.688V74.6875H175.312V50.3125ZM24.6875 75.3125H0.3125V99.6875H24.6875V75.3125ZM25.3125 75.3125H49.6875V99.6875H25.3125V75.3125ZM74.6875 75.3125H50.3125V99.6875H74.6875V75.3125ZM75.3125 75.3125H99.6875V99.6875H75.3125V75.3125ZM124.688 75.3125H100.312V99.6875H124.688V75.3125ZM125.312 75.3125H149.688V99.6875H125.312V75.3125ZM174.688 75.3125H150.312V99.6875H174.688V75.3125ZM175.312 75.3125H199.688V99.6875H175.312V75.3125ZM24.6875 100.312H0.3125V124.688H24.6875V100.312ZM25.3125 100.312H49.6875V124.688H25.3125V100.312ZM74.6875 100.312H50.3125V124.688H74.6875V100.312ZM75.3125 100.312H99.6875V124.688H75.3125V100.312ZM124.688 100.312H100.312V124.688H124.688V100.312ZM125.312 100.312H149.688V124.688H125.312V100.312ZM174.688 100.312H150.312V124.688H174.688V100.312ZM175.312 100.312H199.688V124.688H175.312V100.312ZM24.6875 125.312H0.3125V149.688H24.6875V125.312ZM25.3125 125.312H49.6875V149.688H25.3125V125.312ZM74.6875 125.312H50.3125V149.688H74.6875V125.312ZM75.3125 125.312H99.6875V149.688H75.3125V125.312ZM124.688 125.312H100.312V149.688H124.688V125.312ZM125.312 125.312H149.688V149.688H125.312V125.312ZM174.688 125.312H150.312V149.688H174.688V125.312ZM175.312 125.312H199.688V149.688H175.312V125.312ZM24.6875 150.312H0.3125V174.688H24.6875V150.312ZM25.3125 150.312H49.6875V174.688H25.3125V150.312ZM74.6875 150.312H50.3125V174.688H74.6875V150.312ZM75.3125 150.312H99.6875V174.688H75.3125V150.312ZM124.688 150.312H100.312V174.688H124.688V150.312ZM125.312 150.312H149.688V174.688H125.312V150.312ZM174.688 150.312H150.312V174.688H174.688V150.312ZM175.312 150.312H199.688V174.688H175.312V150.312Z" fill="#4285F4"/>
</svg>
