<svg width="291" height="189" viewBox="0 0 291 189" fill="none" xmlns="http://www.w3.org/2000/svg">
<g opacity="0.6">
<path d="M353.982 154.612C353.982 154.612 325.155 160.214 317.869 179.003C310.901 197.015 281.594 202.096 281.594 202.096" stroke="#8BB2F9" stroke-width="2" stroke-miterlimit="10"/>
<path d="M353.904 145.613C353.904 145.613 318.534 152.096 309.607 174.775C301.095 196.425 265.17 202.239 265.17 202.239" stroke="#8BB2F9" stroke-width="2" stroke-miterlimit="10"/>
<path d="M353.825 136.588C353.825 136.588 311.938 143.979 301.369 170.497C291.29 195.861 248.745 202.382 248.745 202.382" stroke="#8BB2F9" stroke-width="2" stroke-miterlimit="10"/>
<path d="M353.746 127.588C353.746 127.588 305.317 135.861 293.107 166.269C281.484 195.271 232.321 202.526 232.321 202.526" stroke="#8BB2F9" stroke-width="2" stroke-miterlimit="10"/>
<path d="M353.668 118.589C353.668 118.589 298.696 127.744 284.844 162.016C271.679 194.682 215.921 202.669 215.921 202.669" stroke="#8BB2F9" stroke-width="2" stroke-miterlimit="10"/>
<path d="M353.589 109.564C353.589 109.564 292.099 119.601 276.607 157.763C261.849 194.118 199.497 202.812 199.497 202.812" stroke="#8BB2F9" stroke-width="2" stroke-miterlimit="10"/>
<path d="M353.511 100.564C353.511 100.564 285.479 111.508 268.344 153.51C252.043 193.528 183.073 202.956 183.073 202.956" stroke="#8BB2F9" stroke-width="2" stroke-miterlimit="10"/>
<path d="M353.432 91.5646C353.432 91.5646 278.857 103.391 260.107 149.281C242.237 192.939 166.648 203.099 166.648 203.099" stroke="#8BB2F9" stroke-width="2" stroke-miterlimit="10"/>
<path d="M353.353 82.54C353.353 82.54 272.261 95.2481 251.845 145.003C232.432 192.374 150.249 203.242 150.249 203.242" stroke="#8BB2F9" stroke-width="2" stroke-miterlimit="10"/>
<path d="M353.275 73.5403C353.275 73.5403 265.64 87.1306 243.607 140.75C222.627 191.785 133.825 203.385 133.825 203.385" stroke="#8BB2F9" stroke-width="2" stroke-miterlimit="10"/>
<path d="M353.196 64.5157C353.196 64.5157 259.019 79.0131 235.345 136.497C212.821 191.195 117.4 203.529 117.4 203.529" stroke="#8BB2F9" stroke-width="2" stroke-miterlimit="10"/>
<path d="M353.117 55.516C353.117 55.516 252.423 70.8953 227.107 132.244C203.016 190.631 100.976 203.672 100.976 203.672" stroke="#8BB2F9" stroke-width="2" stroke-miterlimit="10"/>
<path d="M353.039 46.5164C353.039 46.5164 245.802 62.7778 218.845 128.016C193.21 190.042 84.5514 203.815 84.5514 203.815" stroke="#8BB2F9" stroke-width="2" stroke-miterlimit="10"/>
<path d="M352.96 37.4917C352.96 37.4917 239.181 54.6603 210.582 123.737C183.405 189.452 68.152 203.958 68.152 203.958" stroke="#8BB2F9" stroke-width="2" stroke-miterlimit="10"/>
<path d="M352.882 28.492C352.882 28.492 232.585 46.5425 202.345 119.509C173.6 188.888 51.7276 204.102 51.7276 204.102" stroke="#8BB2F9" stroke-width="2" stroke-miterlimit="10"/>
<path d="M352.803 19.4924C352.803 19.4924 225.963 38.425 194.083 115.256C163.794 188.298 35.3033 204.245 35.3033 204.245" stroke="#8BB2F9" stroke-width="2" stroke-miterlimit="10"/>
<path d="M352.724 10.4677C352.724 10.4677 219.342 30.2824 185.845 111.003C153.988 187.709 18.8789 204.388 18.8789 204.388" stroke="#8BB2F9" stroke-width="2" stroke-miterlimit="10"/>
<path d="M352.646 1.46807C352.646 1.46807 212.746 22.1897 177.583 106.75C144.183 187.144 2.4795 204.532 2.4795 204.532" stroke="#8BB2F9" stroke-width="2" stroke-miterlimit="10"/>
</g>
</svg>
