<svg width="156" height="161" viewBox="0 0 156 161" fill="none" xmlns="http://www.w3.org/2000/svg">
<path fill-rule="evenodd" clip-rule="evenodd" d="M100 0C98.7157 0 97.6744 1.03993 97.6744 2.32271V160.267C97.6744 161.55 98.7157 162.59 100 162.59C101.284 162.59 102.326 161.55 102.326 160.267V2.32271C102.326 1.03993 101.284 0 100 0ZM83.7209 23.2271C82.4366 23.2271 81.3953 24.267 81.3953 25.5498V160.267C81.3953 161.55 82.4366 162.59 83.7209 162.59C85.0052 162.59 86.0465 161.55 86.0465 160.267V25.5498C86.0465 24.267 85.0052 23.2271 83.7209 23.2271ZM67.4419 46.4543C66.1576 46.4543 65.1163 47.4941 65.1163 48.777V160.267C65.1163 161.55 66.1576 162.59 67.4419 162.59C68.7262 162.59 69.7674 161.55 69.7674 160.267V48.777C69.7674 47.4941 68.7262 46.4543 67.4419 46.4543ZM51.1628 69.6814C49.8785 69.6814 48.8372 70.7213 48.8372 72.0041V160.267C48.8372 161.55 49.8785 162.59 51.1628 162.59C52.4471 162.59 53.4884 161.55 53.4884 160.267V72.0041C53.4884 70.7213 52.4471 69.6814 51.1628 69.6814ZM34.8837 92.9085C33.5994 92.9085 32.5581 93.9484 32.5581 95.2312V160.267C32.5581 161.55 33.5994 162.59 34.8837 162.59C36.168 162.59 37.2093 161.55 37.2093 160.267V95.2312C37.2093 93.9484 36.168 92.9085 34.8837 92.9085ZM18.6047 116.136C17.3204 116.136 16.2791 117.176 16.2791 118.458V160.267C16.2791 161.55 17.3204 162.59 18.6047 162.59C19.8889 162.59 20.9302 161.55 20.9302 160.267V118.458C20.9302 117.176 19.8889 116.136 18.6047 116.136ZM0 141.686C0 140.403 1.04129 139.363 2.32558 139.363C3.60987 139.363 4.65116 140.403 4.65116 141.686V160.267C4.65116 161.55 3.60987 162.59 2.32558 162.59C1.04129 162.59 0 161.55 0 160.267V141.686ZM200 141.686C200 140.403 198.959 139.363 197.674 139.363C196.39 139.363 195.349 140.403 195.349 141.686V160.267C195.349 161.55 196.39 162.59 197.674 162.59C198.959 162.59 200 161.55 200 160.267V141.686ZM183.721 118.458C183.721 117.176 182.68 116.136 181.395 116.136C180.111 116.136 179.07 117.176 179.07 118.458V160.267C179.07 161.55 180.111 162.59 181.395 162.59C182.68 162.59 183.721 161.55 183.721 160.267V118.458ZM167.442 95.2312C167.442 93.9484 166.401 92.9085 165.116 92.9085C163.832 92.9085 162.791 93.9484 162.791 95.2312V160.267C162.791 161.55 163.832 162.59 165.116 162.59C166.401 162.59 167.442 161.55 167.442 160.267V95.2312ZM151.163 72.0041C151.163 70.7213 150.121 69.6814 148.837 69.6814C147.553 69.6814 146.512 70.7213 146.512 72.0041V160.267C146.512 161.55 147.553 162.59 148.837 162.59C150.121 162.59 151.163 161.55 151.163 160.267V72.0041ZM134.884 48.777C134.884 47.4941 133.842 46.4543 132.558 46.4543C131.274 46.4543 130.233 47.4941 130.233 48.777V160.267C130.233 161.55 131.274 162.59 132.558 162.59C133.842 162.59 134.884 161.55 134.884 160.267V48.777ZM118.605 25.5498C118.605 24.267 117.563 23.2271 116.279 23.2271C114.995 23.2271 113.953 24.267 113.953 25.5498V160.267C113.953 161.55 114.995 162.59 116.279 162.59C117.563 162.59 118.605 161.55 118.605 160.267V25.5498Z" fill="#FF627A"/>
</svg>
