<svg width="123" height="179" viewBox="0 0 123 179" fill="none" xmlns="http://www.w3.org/2000/svg">
<path d="M172.608 41.6296C173.104 42.4882 173.586 43.3552 174.056 44.2303C173.203 43.6725 172.633 42.7184 172.608 41.6296Z" fill="url(#paint0_linear_1205_416)"/>
<path d="M155.106 19.5618C156.596 20.9596 158.04 22.4045 159.438 23.894C158.898 24.8929 157.841 25.5714 156.625 25.5714C154.86 25.5714 153.429 24.1403 153.429 22.375C153.429 21.1594 154.107 20.1024 155.106 19.5618Z" fill="url(#paint1_linear_1205_416)"/>
<path d="M134.77 4.94413C135.645 5.41364 136.512 5.89634 137.37 6.39197C136.282 6.36656 135.327 5.79672 134.77 4.94413Z" fill="url(#paint2_linear_1205_416)"/>
<path d="M41.6296 6.39197C42.4882 5.89634 43.3552 5.41364 44.2303 4.94413C43.6725 5.79672 42.7184 6.36656 41.6296 6.39197Z" fill="url(#paint3_linear_1205_416)"/>
<path d="M19.5618 23.894C20.9596 22.4045 22.4045 20.9596 23.894 19.5618C24.8929 20.1024 25.5714 21.1594 25.5714 22.375C25.5714 24.1403 24.1403 25.5714 22.375 25.5714C21.1594 25.5714 20.1024 24.8929 19.5618 23.894Z" fill="url(#paint4_linear_1205_416)"/>
<path d="M4.94413 44.2303C5.41364 43.3552 5.89634 42.4882 6.39197 41.6296C6.36656 42.7184 5.79672 43.6725 4.94413 44.2303Z" fill="url(#paint5_linear_1205_416)"/>
<path d="M174.056 134.77C173.586 135.645 173.104 136.512 172.608 137.37C172.633 136.282 173.203 135.327 174.056 134.77Z" fill="url(#paint6_linear_1205_416)"/>
<path d="M159.438 155.106C158.898 154.107 157.841 153.429 156.625 153.429C154.86 153.429 153.429 154.86 153.429 156.625C153.429 157.841 154.107 158.898 155.106 159.438C156.596 158.04 158.04 156.596 159.438 155.106Z" fill="url(#paint7_linear_1205_416)"/>
<path d="M137.37 172.608C136.282 172.633 135.327 173.203 134.77 174.056C135.645 173.586 136.512 173.104 137.37 172.608Z" fill="url(#paint8_linear_1205_416)"/>
<path d="M44.2303 174.056C43.6725 173.203 42.7184 172.633 41.6296 172.608C42.4882 173.104 43.3552 173.586 44.2303 174.056Z" fill="url(#paint9_linear_1205_416)"/>
<path d="M23.894 159.438C24.8929 158.898 25.5714 157.841 25.5714 156.625C25.5714 154.86 24.1403 153.429 22.375 153.429C21.1594 153.429 20.1024 154.107 19.5618 155.106C20.9596 156.596 22.4045 158.04 23.894 159.438Z" fill="url(#paint10_linear_1205_416)"/>
<path d="M6.39197 137.37C6.36656 136.282 5.79672 135.327 4.94413 134.77C5.41364 135.645 5.89634 136.512 6.39197 137.37Z" fill="url(#paint11_linear_1205_416)"/>
<path d="M63.9286 3.19643C63.9286 4.96177 62.4975 6.39286 60.7321 6.39286C58.9668 6.39286 57.5357 4.96177 57.5357 3.19643C57.5357 1.43109 58.9668 0 60.7321 0C62.4975 0 63.9286 1.43109 63.9286 3.19643Z" fill="url(#paint12_linear_1205_416)"/>
<path d="M83.1071 3.19643C83.1071 4.96177 81.676 6.39286 79.9107 6.39286C78.1454 6.39286 76.7143 4.96177 76.7143 3.19643C76.7143 1.43109 78.1454 0 79.9107 0C81.676 0 83.1071 1.43109 83.1071 3.19643Z" fill="url(#paint13_linear_1205_416)"/>
<path d="M102.286 3.19643C102.286 4.96177 100.855 6.39286 99.0893 6.39286C97.3239 6.39286 95.8929 4.96177 95.8929 3.19643C95.8929 1.43109 97.3239 0 99.0893 0C100.855 0 102.286 1.43109 102.286 3.19643Z" fill="url(#paint14_linear_1205_416)"/>
<path d="M121.464 3.19643C121.464 4.96177 120.033 6.39286 118.268 6.39286C116.503 6.39286 115.071 4.96177 115.071 3.19643C115.071 1.43109 116.503 0 118.268 0C120.033 0 121.464 1.43109 121.464 3.19643Z" fill="url(#paint15_linear_1205_416)"/>
<path d="M44.75 22.375C44.75 24.1403 43.3189 25.5714 41.5536 25.5714C39.7882 25.5714 38.3571 24.1403 38.3571 22.375C38.3571 20.6097 39.7882 19.1786 41.5536 19.1786C43.3189 19.1786 44.75 20.6097 44.75 22.375Z" fill="url(#paint16_linear_1205_416)"/>
<path d="M63.9286 22.375C63.9286 24.1403 62.4975 25.5714 60.7321 25.5714C58.9668 25.5714 57.5357 24.1403 57.5357 22.375C57.5357 20.6097 58.9668 19.1786 60.7321 19.1786C62.4975 19.1786 63.9286 20.6097 63.9286 22.375Z" fill="url(#paint17_linear_1205_416)"/>
<path d="M83.1071 22.375C83.1071 24.1403 81.676 25.5714 79.9107 25.5714C78.1454 25.5714 76.7143 24.1403 76.7143 22.375C76.7143 20.6097 78.1454 19.1786 79.9107 19.1786C81.676 19.1786 83.1071 20.6097 83.1071 22.375Z" fill="url(#paint18_linear_1205_416)"/>
<path d="M102.286 22.375C102.286 24.1403 100.855 25.5714 99.0893 25.5714C97.3239 25.5714 95.8929 24.1403 95.8929 22.375C95.8929 20.6097 97.3239 19.1786 99.0893 19.1786C100.855 19.1786 102.286 20.6097 102.286 22.375Z" fill="url(#paint19_linear_1205_416)"/>
<path d="M121.464 22.375C121.464 24.1403 120.033 25.5714 118.268 25.5714C116.503 25.5714 115.071 24.1403 115.071 22.375C115.071 20.6097 116.503 19.1786 118.268 19.1786C120.033 19.1786 121.464 20.6097 121.464 22.375Z" fill="url(#paint20_linear_1205_416)"/>
<path d="M140.643 22.375C140.643 24.1403 139.212 25.5714 137.446 25.5714C135.681 25.5714 134.25 24.1403 134.25 22.375C134.25 20.6097 135.681 19.1786 137.446 19.1786C139.212 19.1786 140.643 20.6097 140.643 22.375Z" fill="url(#paint21_linear_1205_416)"/>
<path d="M25.5714 41.5536C25.5714 43.3189 24.1403 44.75 22.375 44.75C20.6097 44.75 19.1786 43.3189 19.1786 41.5536C19.1786 39.7882 20.6097 38.3571 22.375 38.3571C24.1403 38.3571 25.5714 39.7882 25.5714 41.5536Z" fill="url(#paint22_linear_1205_416)"/>
<path d="M44.75 41.5536C44.75 43.3189 43.3189 44.75 41.5536 44.75C39.7882 44.75 38.3571 43.3189 38.3571 41.5536C38.3571 39.7882 39.7882 38.3571 41.5536 38.3571C43.3189 38.3571 44.75 39.7882 44.75 41.5536Z" fill="url(#paint23_linear_1205_416)"/>
<path d="M63.9286 41.5536C63.9286 43.3189 62.4975 44.75 60.7321 44.75C58.9668 44.75 57.5357 43.3189 57.5357 41.5536C57.5357 39.7882 58.9668 38.3571 60.7321 38.3571C62.4975 38.3571 63.9286 39.7882 63.9286 41.5536Z" fill="url(#paint24_linear_1205_416)"/>
<path d="M83.1071 41.5536C83.1071 43.3189 81.676 44.75 79.9107 44.75C78.1454 44.75 76.7143 43.3189 76.7143 41.5536C76.7143 39.7882 78.1454 38.3571 79.9107 38.3571C81.676 38.3571 83.1071 39.7882 83.1071 41.5536Z" fill="url(#paint25_linear_1205_416)"/>
<path d="M102.286 41.5536C102.286 43.3189 100.855 44.75 99.0893 44.75C97.3239 44.75 95.8929 43.3189 95.8929 41.5536C95.8929 39.7882 97.3239 38.3571 99.0893 38.3571C100.855 38.3571 102.286 39.7882 102.286 41.5536Z" fill="url(#paint26_linear_1205_416)"/>
<path d="M121.464 41.5536C121.464 43.3189 120.033 44.75 118.268 44.75C116.503 44.75 115.071 43.3189 115.071 41.5536C115.071 39.7882 116.503 38.3571 118.268 38.3571C120.033 38.3571 121.464 39.7882 121.464 41.5536Z" fill="url(#paint27_linear_1205_416)"/>
<path d="M140.643 41.5536C140.643 43.3189 139.212 44.75 137.446 44.75C135.681 44.75 134.25 43.3189 134.25 41.5536C134.25 39.7882 135.681 38.3571 137.446 38.3571C139.212 38.3571 140.643 39.7882 140.643 41.5536Z" fill="url(#paint28_linear_1205_416)"/>
<path d="M159.821 41.5536C159.821 43.3189 158.39 44.75 156.625 44.75C154.86 44.75 153.429 43.3189 153.429 41.5536C153.429 39.7882 154.86 38.3571 156.625 38.3571C158.39 38.3571 159.821 39.7882 159.821 41.5536Z" fill="url(#paint29_linear_1205_416)"/>
<path d="M6.39286 60.7321C6.39286 62.4975 4.96177 63.9286 3.19643 63.9286C1.43109 63.9286 0 62.4975 0 60.7321C0 58.9668 1.43109 57.5357 3.19643 57.5357C4.96177 57.5357 6.39286 58.9668 6.39286 60.7321Z" fill="url(#paint30_linear_1205_416)"/>
<path d="M25.5714 60.7321C25.5714 62.4975 24.1403 63.9286 22.375 63.9286C20.6097 63.9286 19.1786 62.4975 19.1786 60.7321C19.1786 58.9668 20.6097 57.5357 22.375 57.5357C24.1403 57.5357 25.5714 58.9668 25.5714 60.7321Z" fill="url(#paint31_linear_1205_416)"/>
<path d="M44.75 60.7321C44.75 62.4975 43.3189 63.9286 41.5536 63.9286C39.7882 63.9286 38.3571 62.4975 38.3571 60.7321C38.3571 58.9668 39.7882 57.5357 41.5536 57.5357C43.3189 57.5357 44.75 58.9668 44.75 60.7321Z" fill="url(#paint32_linear_1205_416)"/>
<path d="M63.9286 60.7321C63.9286 62.4975 62.4975 63.9286 60.7321 63.9286C58.9668 63.9286 57.5357 62.4975 57.5357 60.7321C57.5357 58.9668 58.9668 57.5357 60.7321 57.5357C62.4975 57.5357 63.9286 58.9668 63.9286 60.7321Z" fill="url(#paint33_linear_1205_416)"/>
<path d="M83.1071 60.7321C83.1071 62.4975 81.676 63.9286 79.9107 63.9286C78.1454 63.9286 76.7143 62.4975 76.7143 60.7321C76.7143 58.9668 78.1454 57.5357 79.9107 57.5357C81.676 57.5357 83.1071 58.9668 83.1071 60.7321Z" fill="url(#paint34_linear_1205_416)"/>
<path d="M102.286 60.7321C102.286 62.4975 100.855 63.9286 99.0893 63.9286C97.3239 63.9286 95.8929 62.4975 95.8929 60.7321C95.8929 58.9668 97.3239 57.5357 99.0893 57.5357C100.855 57.5357 102.286 58.9668 102.286 60.7321Z" fill="url(#paint35_linear_1205_416)"/>
<path d="M121.464 60.7321C121.464 62.4975 120.033 63.9286 118.268 63.9286C116.503 63.9286 115.071 62.4975 115.071 60.7321C115.071 58.9668 116.503 57.5357 118.268 57.5357C120.033 57.5357 121.464 58.9668 121.464 60.7321Z" fill="url(#paint36_linear_1205_416)"/>
<path d="M140.643 60.7321C140.643 62.4975 139.212 63.9286 137.446 63.9286C135.681 63.9286 134.25 62.4975 134.25 60.7321C134.25 58.9668 135.681 57.5357 137.446 57.5357C139.212 57.5357 140.643 58.9668 140.643 60.7321Z" fill="url(#paint37_linear_1205_416)"/>
<path d="M159.821 60.7321C159.821 62.4975 158.39 63.9286 156.625 63.9286C154.86 63.9286 153.429 62.4975 153.429 60.7321C153.429 58.9668 154.86 57.5357 156.625 57.5357C158.39 57.5357 159.821 58.9668 159.821 60.7321Z" fill="url(#paint38_linear_1205_416)"/>
<path d="M179 60.7321C179 62.4975 177.569 63.9286 175.804 63.9286C174.038 63.9286 172.607 62.4975 172.607 60.7321C172.607 58.9668 174.038 57.5357 175.804 57.5357C177.569 57.5357 179 58.9668 179 60.7321Z" fill="url(#paint39_linear_1205_416)"/>
<path d="M6.39286 79.9107C6.39286 81.676 4.96177 83.1071 3.19643 83.1071C1.43109 83.1071 0 81.676 0 79.9107C0 78.1454 1.43109 76.7143 3.19643 76.7143C4.96177 76.7143 6.39286 78.1454 6.39286 79.9107Z" fill="url(#paint40_linear_1205_416)"/>
<path d="M25.5714 79.9107C25.5714 81.676 24.1403 83.1071 22.375 83.1071C20.6097 83.1071 19.1786 81.676 19.1786 79.9107C19.1786 78.1454 20.6097 76.7143 22.375 76.7143C24.1403 76.7143 25.5714 78.1454 25.5714 79.9107Z" fill="url(#paint41_linear_1205_416)"/>
<path d="M44.75 79.9107C44.75 81.676 43.3189 83.1071 41.5536 83.1071C39.7882 83.1071 38.3571 81.676 38.3571 79.9107C38.3571 78.1454 39.7882 76.7143 41.5536 76.7143C43.3189 76.7143 44.75 78.1454 44.75 79.9107Z" fill="url(#paint42_linear_1205_416)"/>
<path d="M63.9286 79.9107C63.9286 81.676 62.4975 83.1071 60.7321 83.1071C58.9668 83.1071 57.5357 81.676 57.5357 79.9107C57.5357 78.1454 58.9668 76.7143 60.7321 76.7143C62.4975 76.7143 63.9286 78.1454 63.9286 79.9107Z" fill="url(#paint43_linear_1205_416)"/>
<path d="M83.1071 79.9107C83.1071 81.676 81.676 83.1071 79.9107 83.1071C78.1454 83.1071 76.7143 81.676 76.7143 79.9107C76.7143 78.1454 78.1454 76.7143 79.9107 76.7143C81.676 76.7143 83.1071 78.1454 83.1071 79.9107Z" fill="url(#paint44_linear_1205_416)"/>
<path d="M102.286 79.9107C102.286 81.676 100.855 83.1071 99.0893 83.1071C97.3239 83.1071 95.8929 81.676 95.8929 79.9107C95.8929 78.1454 97.3239 76.7143 99.0893 76.7143C100.855 76.7143 102.286 78.1454 102.286 79.9107Z" fill="url(#paint45_linear_1205_416)"/>
<path d="M121.464 79.9107C121.464 81.676 120.033 83.1071 118.268 83.1071C116.503 83.1071 115.071 81.676 115.071 79.9107C115.071 78.1454 116.503 76.7143 118.268 76.7143C120.033 76.7143 121.464 78.1454 121.464 79.9107Z" fill="url(#paint46_linear_1205_416)"/>
<path d="M140.643 79.9107C140.643 81.676 139.212 83.1071 137.446 83.1071C135.681 83.1071 134.25 81.676 134.25 79.9107C134.25 78.1454 135.681 76.7143 137.446 76.7143C139.212 76.7143 140.643 78.1454 140.643 79.9107Z" fill="url(#paint47_linear_1205_416)"/>
<path d="M159.821 79.9107C159.821 81.676 158.39 83.1071 156.625 83.1071C154.86 83.1071 153.429 81.676 153.429 79.9107C153.429 78.1454 154.86 76.7143 156.625 76.7143C158.39 76.7143 159.821 78.1454 159.821 79.9107Z" fill="url(#paint48_linear_1205_416)"/>
<path d="M179 79.9107C179 81.676 177.569 83.1071 175.804 83.1071C174.038 83.1071 172.607 81.676 172.607 79.9107C172.607 78.1454 174.038 76.7143 175.804 76.7143C177.569 76.7143 179 78.1454 179 79.9107Z" fill="url(#paint49_linear_1205_416)"/>
<path d="M6.39286 99.0893C6.39286 100.855 4.96177 102.286 3.19643 102.286C1.43109 102.286 0 100.855 0 99.0893C0 97.3239 1.43109 95.8929 3.19643 95.8929C4.96177 95.8929 6.39286 97.3239 6.39286 99.0893Z" fill="url(#paint50_linear_1205_416)"/>
<path d="M25.5714 99.0893C25.5714 100.855 24.1403 102.286 22.375 102.286C20.6097 102.286 19.1786 100.855 19.1786 99.0893C19.1786 97.3239 20.6097 95.8929 22.375 95.8929C24.1403 95.8929 25.5714 97.3239 25.5714 99.0893Z" fill="url(#paint51_linear_1205_416)"/>
<path d="M44.75 99.0893C44.75 100.855 43.3189 102.286 41.5536 102.286C39.7882 102.286 38.3571 100.855 38.3571 99.0893C38.3571 97.3239 39.7882 95.8929 41.5536 95.8929C43.3189 95.8929 44.75 97.3239 44.75 99.0893Z" fill="url(#paint52_linear_1205_416)"/>
<path d="M63.9286 99.0893C63.9286 100.855 62.4975 102.286 60.7321 102.286C58.9668 102.286 57.5357 100.855 57.5357 99.0893C57.5357 97.3239 58.9668 95.8929 60.7321 95.8929C62.4975 95.8929 63.9286 97.3239 63.9286 99.0893Z" fill="url(#paint53_linear_1205_416)"/>
<path d="M83.1071 99.0893C83.1071 100.855 81.676 102.286 79.9107 102.286C78.1454 102.286 76.7143 100.855 76.7143 99.0893C76.7143 97.3239 78.1454 95.8929 79.9107 95.8929C81.676 95.8929 83.1071 97.3239 83.1071 99.0893Z" fill="url(#paint54_linear_1205_416)"/>
<path d="M102.286 99.0893C102.286 100.855 100.855 102.286 99.0893 102.286C97.3239 102.286 95.8929 100.855 95.8929 99.0893C95.8929 97.3239 97.3239 95.8929 99.0893 95.8929C100.855 95.8929 102.286 97.3239 102.286 99.0893Z" fill="url(#paint55_linear_1205_416)"/>
<path d="M121.464 99.0893C121.464 100.855 120.033 102.286 118.268 102.286C116.503 102.286 115.071 100.855 115.071 99.0893C115.071 97.3239 116.503 95.8929 118.268 95.8929C120.033 95.8929 121.464 97.3239 121.464 99.0893Z" fill="url(#paint56_linear_1205_416)"/>
<path d="M140.643 99.0893C140.643 100.855 139.212 102.286 137.446 102.286C135.681 102.286 134.25 100.855 134.25 99.0893C134.25 97.3239 135.681 95.8929 137.446 95.8929C139.212 95.8929 140.643 97.3239 140.643 99.0893Z" fill="url(#paint57_linear_1205_416)"/>
<path d="M159.821 99.0893C159.821 100.855 158.39 102.286 156.625 102.286C154.86 102.286 153.429 100.855 153.429 99.0893C153.429 97.3239 154.86 95.8929 156.625 95.8929C158.39 95.8929 159.821 97.3239 159.821 99.0893Z" fill="url(#paint58_linear_1205_416)"/>
<path d="M179 99.0893C179 100.855 177.569 102.286 175.804 102.286C174.038 102.286 172.607 100.855 172.607 99.0893C172.607 97.3239 174.038 95.8929 175.804 95.8929C177.569 95.8929 179 97.3239 179 99.0893Z" fill="url(#paint59_linear_1205_416)"/>
<path d="M6.39286 118.268C6.39286 120.033 4.96177 121.464 3.19643 121.464C1.43109 121.464 0 120.033 0 118.268C0 116.503 1.43109 115.071 3.19643 115.071C4.96177 115.071 6.39286 116.503 6.39286 118.268Z" fill="url(#paint60_linear_1205_416)"/>
<path d="M25.5714 118.268C25.5714 120.033 24.1403 121.464 22.375 121.464C20.6097 121.464 19.1786 120.033 19.1786 118.268C19.1786 116.503 20.6097 115.071 22.375 115.071C24.1403 115.071 25.5714 116.503 25.5714 118.268Z" fill="url(#paint61_linear_1205_416)"/>
<path d="M44.75 118.268C44.75 120.033 43.3189 121.464 41.5536 121.464C39.7882 121.464 38.3571 120.033 38.3571 118.268C38.3571 116.503 39.7882 115.071 41.5536 115.071C43.3189 115.071 44.75 116.503 44.75 118.268Z" fill="url(#paint62_linear_1205_416)"/>
<path d="M63.9286 118.268C63.9286 120.033 62.4975 121.464 60.7321 121.464C58.9668 121.464 57.5357 120.033 57.5357 118.268C57.5357 116.503 58.9668 115.071 60.7321 115.071C62.4975 115.071 63.9286 116.503 63.9286 118.268Z" fill="url(#paint63_linear_1205_416)"/>
<path d="M83.1071 118.268C83.1071 120.033 81.676 121.464 79.9107 121.464C78.1454 121.464 76.7143 120.033 76.7143 118.268C76.7143 116.503 78.1454 115.071 79.9107 115.071C81.676 115.071 83.1071 116.503 83.1071 118.268Z" fill="url(#paint64_linear_1205_416)"/>
<path d="M102.286 118.268C102.286 120.033 100.855 121.464 99.0893 121.464C97.3239 121.464 95.8929 120.033 95.8929 118.268C95.8929 116.503 97.3239 115.071 99.0893 115.071C100.855 115.071 102.286 116.503 102.286 118.268Z" fill="url(#paint65_linear_1205_416)"/>
<path d="M121.464 118.268C121.464 120.033 120.033 121.464 118.268 121.464C116.503 121.464 115.071 120.033 115.071 118.268C115.071 116.503 116.503 115.071 118.268 115.071C120.033 115.071 121.464 116.503 121.464 118.268Z" fill="url(#paint66_linear_1205_416)"/>
<path d="M140.643 118.268C140.643 120.033 139.212 121.464 137.446 121.464C135.681 121.464 134.25 120.033 134.25 118.268C134.25 116.503 135.681 115.071 137.446 115.071C139.212 115.071 140.643 116.503 140.643 118.268Z" fill="url(#paint67_linear_1205_416)"/>
<path d="M159.821 118.268C159.821 120.033 158.39 121.464 156.625 121.464C154.86 121.464 153.429 120.033 153.429 118.268C153.429 116.503 154.86 115.071 156.625 115.071C158.39 115.071 159.821 116.503 159.821 118.268Z" fill="url(#paint68_linear_1205_416)"/>
<path d="M179 118.268C179 120.033 177.569 121.464 175.804 121.464C174.038 121.464 172.607 120.033 172.607 118.268C172.607 116.503 174.038 115.071 175.804 115.071C177.569 115.071 179 116.503 179 118.268Z" fill="url(#paint69_linear_1205_416)"/>
<path d="M25.5714 137.446C25.5714 139.212 24.1403 140.643 22.375 140.643C20.6097 140.643 19.1786 139.212 19.1786 137.446C19.1786 135.681 20.6097 134.25 22.375 134.25C24.1403 134.25 25.5714 135.681 25.5714 137.446Z" fill="url(#paint70_linear_1205_416)"/>
<path d="M44.75 137.446C44.75 139.212 43.3189 140.643 41.5536 140.643C39.7882 140.643 38.3571 139.212 38.3571 137.446C38.3571 135.681 39.7882 134.25 41.5536 134.25C43.3189 134.25 44.75 135.681 44.75 137.446Z" fill="url(#paint71_linear_1205_416)"/>
<path d="M63.9286 137.446C63.9286 139.212 62.4975 140.643 60.7321 140.643C58.9668 140.643 57.5357 139.212 57.5357 137.446C57.5357 135.681 58.9668 134.25 60.7321 134.25C62.4975 134.25 63.9286 135.681 63.9286 137.446Z" fill="url(#paint72_linear_1205_416)"/>
<path d="M83.1071 137.446C83.1071 139.212 81.676 140.643 79.9107 140.643C78.1454 140.643 76.7143 139.212 76.7143 137.446C76.7143 135.681 78.1454 134.25 79.9107 134.25C81.676 134.25 83.1071 135.681 83.1071 137.446Z" fill="url(#paint73_linear_1205_416)"/>
<path d="M102.286 137.446C102.286 139.212 100.855 140.643 99.0893 140.643C97.3239 140.643 95.8929 139.212 95.8929 137.446C95.8929 135.681 97.3239 134.25 99.0893 134.25C100.855 134.25 102.286 135.681 102.286 137.446Z" fill="url(#paint74_linear_1205_416)"/>
<path d="M121.464 137.446C121.464 139.212 120.033 140.643 118.268 140.643C116.503 140.643 115.071 139.212 115.071 137.446C115.071 135.681 116.503 134.25 118.268 134.25C120.033 134.25 121.464 135.681 121.464 137.446Z" fill="url(#paint75_linear_1205_416)"/>
<path d="M140.643 137.446C140.643 139.212 139.212 140.643 137.446 140.643C135.681 140.643 134.25 139.212 134.25 137.446C134.25 135.681 135.681 134.25 137.446 134.25C139.212 134.25 140.643 135.681 140.643 137.446Z" fill="url(#paint76_linear_1205_416)"/>
<path d="M159.821 137.446C159.821 139.212 158.39 140.643 156.625 140.643C154.86 140.643 153.429 139.212 153.429 137.446C153.429 135.681 154.86 134.25 156.625 134.25C158.39 134.25 159.821 135.681 159.821 137.446Z" fill="url(#paint77_linear_1205_416)"/>
<path d="M44.75 156.625C44.75 158.39 43.3189 159.821 41.5536 159.821C39.7882 159.821 38.3571 158.39 38.3571 156.625C38.3571 154.86 39.7882 153.429 41.5536 153.429C43.3189 153.429 44.75 154.86 44.75 156.625Z" fill="url(#paint78_linear_1205_416)"/>
<path d="M63.9286 156.625C63.9286 158.39 62.4975 159.821 60.7321 159.821C58.9668 159.821 57.5357 158.39 57.5357 156.625C57.5357 154.86 58.9668 153.429 60.7321 153.429C62.4975 153.429 63.9286 154.86 63.9286 156.625Z" fill="url(#paint79_linear_1205_416)"/>
<path d="M83.1071 156.625C83.1071 158.39 81.676 159.821 79.9107 159.821C78.1454 159.821 76.7143 158.39 76.7143 156.625C76.7143 154.86 78.1454 153.429 79.9107 153.429C81.676 153.429 83.1071 154.86 83.1071 156.625Z" fill="url(#paint80_linear_1205_416)"/>
<path d="M102.286 156.625C102.286 158.39 100.855 159.821 99.0893 159.821C97.3239 159.821 95.8929 158.39 95.8929 156.625C95.8929 154.86 97.3239 153.429 99.0893 153.429C100.855 153.429 102.286 154.86 102.286 156.625Z" fill="url(#paint81_linear_1205_416)"/>
<path d="M121.464 156.625C121.464 158.39 120.033 159.821 118.268 159.821C116.503 159.821 115.071 158.39 115.071 156.625C115.071 154.86 116.503 153.429 118.268 153.429C120.033 153.429 121.464 154.86 121.464 156.625Z" fill="url(#paint82_linear_1205_416)"/>
<path d="M140.643 156.625C140.643 158.39 139.212 159.821 137.446 159.821C135.681 159.821 134.25 158.39 134.25 156.625C134.25 154.86 135.681 153.429 137.446 153.429C139.212 153.429 140.643 154.86 140.643 156.625Z" fill="url(#paint83_linear_1205_416)"/>
<path d="M63.9286 175.804C63.9286 177.569 62.4975 179 60.7321 179C58.9668 179 57.5357 177.569 57.5357 175.804C57.5357 174.038 58.9668 172.607 60.7321 172.607C62.4975 172.607 63.9286 174.038 63.9286 175.804Z" fill="url(#paint84_linear_1205_416)"/>
<path d="M83.1071 175.804C83.1071 177.569 81.676 179 79.9107 179C78.1454 179 76.7143 177.569 76.7143 175.804C76.7143 174.038 78.1454 172.607 79.9107 172.607C81.676 172.607 83.1071 174.038 83.1071 175.804Z" fill="url(#paint85_linear_1205_416)"/>
<path d="M102.286 175.804C102.286 177.569 100.855 179 99.0893 179C97.3239 179 95.8929 177.569 95.8929 175.804C95.8929 174.038 97.3239 172.607 99.0893 172.607C100.855 172.607 102.286 174.038 102.286 175.804Z" fill="url(#paint86_linear_1205_416)"/>
<path d="M121.464 175.804C121.464 177.569 120.033 179 118.268 179C116.503 179 115.071 177.569 115.071 175.804C115.071 174.038 116.503 172.607 118.268 172.607C120.033 172.607 121.464 174.038 121.464 175.804Z" fill="url(#paint87_linear_1205_416)"/>
<defs>
<linearGradient id="paint0_linear_1205_416" x1="89.5" y1="0" x2="89.5" y2="179" gradientUnits="userSpaceOnUse">
<stop stop-color="#10A37F"/>
<stop offset="1" stop-color="#10A37F" stop-opacity="0"/>
</linearGradient>
<linearGradient id="paint1_linear_1205_416" x1="89.5" y1="0" x2="89.5" y2="179" gradientUnits="userSpaceOnUse">
<stop stop-color="#10A37F"/>
<stop offset="1" stop-color="#10A37F" stop-opacity="0"/>
</linearGradient>
<linearGradient id="paint2_linear_1205_416" x1="89.5" y1="0" x2="89.5" y2="179" gradientUnits="userSpaceOnUse">
<stop stop-color="#10A37F"/>
<stop offset="1" stop-color="#10A37F" stop-opacity="0"/>
</linearGradient>
<linearGradient id="paint3_linear_1205_416" x1="89.5" y1="0" x2="89.5" y2="179" gradientUnits="userSpaceOnUse">
<stop stop-color="#10A37F"/>
<stop offset="1" stop-color="#10A37F" stop-opacity="0"/>
</linearGradient>
<linearGradient id="paint4_linear_1205_416" x1="89.5" y1="0" x2="89.5" y2="179" gradientUnits="userSpaceOnUse">
<stop stop-color="#10A37F"/>
<stop offset="1" stop-color="#10A37F" stop-opacity="0"/>
</linearGradient>
<linearGradient id="paint5_linear_1205_416" x1="89.5" y1="0" x2="89.5" y2="179" gradientUnits="userSpaceOnUse">
<stop stop-color="#10A37F"/>
<stop offset="1" stop-color="#10A37F" stop-opacity="0"/>
</linearGradient>
<linearGradient id="paint6_linear_1205_416" x1="89.5" y1="0" x2="89.5" y2="179" gradientUnits="userSpaceOnUse">
<stop stop-color="#10A37F"/>
<stop offset="1" stop-color="#10A37F" stop-opacity="0"/>
</linearGradient>
<linearGradient id="paint7_linear_1205_416" x1="89.5" y1="0" x2="89.5" y2="179" gradientUnits="userSpaceOnUse">
<stop stop-color="#10A37F"/>
<stop offset="1" stop-color="#10A37F" stop-opacity="0"/>
</linearGradient>
<linearGradient id="paint8_linear_1205_416" x1="89.5" y1="0" x2="89.5" y2="179" gradientUnits="userSpaceOnUse">
<stop stop-color="#10A37F"/>
<stop offset="1" stop-color="#10A37F" stop-opacity="0"/>
</linearGradient>
<linearGradient id="paint9_linear_1205_416" x1="89.5" y1="0" x2="89.5" y2="179" gradientUnits="userSpaceOnUse">
<stop stop-color="#10A37F"/>
<stop offset="1" stop-color="#10A37F" stop-opacity="0"/>
</linearGradient>
<linearGradient id="paint10_linear_1205_416" x1="89.5" y1="0" x2="89.5" y2="179" gradientUnits="userSpaceOnUse">
<stop stop-color="#10A37F"/>
<stop offset="1" stop-color="#10A37F" stop-opacity="0"/>
</linearGradient>
<linearGradient id="paint11_linear_1205_416" x1="89.5" y1="0" x2="89.5" y2="179" gradientUnits="userSpaceOnUse">
<stop stop-color="#10A37F"/>
<stop offset="1" stop-color="#10A37F" stop-opacity="0"/>
</linearGradient>
<linearGradient id="paint12_linear_1205_416" x1="89.5" y1="0" x2="89.5" y2="179" gradientUnits="userSpaceOnUse">
<stop stop-color="#10A37F"/>
<stop offset="1" stop-color="#10A37F" stop-opacity="0"/>
</linearGradient>
<linearGradient id="paint13_linear_1205_416" x1="89.5" y1="0" x2="89.5" y2="179" gradientUnits="userSpaceOnUse">
<stop stop-color="#10A37F"/>
<stop offset="1" stop-color="#10A37F" stop-opacity="0"/>
</linearGradient>
<linearGradient id="paint14_linear_1205_416" x1="89.5" y1="0" x2="89.5" y2="179" gradientUnits="userSpaceOnUse">
<stop stop-color="#10A37F"/>
<stop offset="1" stop-color="#10A37F" stop-opacity="0"/>
</linearGradient>
<linearGradient id="paint15_linear_1205_416" x1="89.5" y1="0" x2="89.5" y2="179" gradientUnits="userSpaceOnUse">
<stop stop-color="#10A37F"/>
<stop offset="1" stop-color="#10A37F" stop-opacity="0"/>
</linearGradient>
<linearGradient id="paint16_linear_1205_416" x1="89.5" y1="0" x2="89.5" y2="179" gradientUnits="userSpaceOnUse">
<stop stop-color="#10A37F"/>
<stop offset="1" stop-color="#10A37F" stop-opacity="0"/>
</linearGradient>
<linearGradient id="paint17_linear_1205_416" x1="89.5" y1="0" x2="89.5" y2="179" gradientUnits="userSpaceOnUse">
<stop stop-color="#10A37F"/>
<stop offset="1" stop-color="#10A37F" stop-opacity="0"/>
</linearGradient>
<linearGradient id="paint18_linear_1205_416" x1="89.5" y1="0" x2="89.5" y2="179" gradientUnits="userSpaceOnUse">
<stop stop-color="#10A37F"/>
<stop offset="1" stop-color="#10A37F" stop-opacity="0"/>
</linearGradient>
<linearGradient id="paint19_linear_1205_416" x1="89.5" y1="0" x2="89.5" y2="179" gradientUnits="userSpaceOnUse">
<stop stop-color="#10A37F"/>
<stop offset="1" stop-color="#10A37F" stop-opacity="0"/>
</linearGradient>
<linearGradient id="paint20_linear_1205_416" x1="89.5" y1="0" x2="89.5" y2="179" gradientUnits="userSpaceOnUse">
<stop stop-color="#10A37F"/>
<stop offset="1" stop-color="#10A37F" stop-opacity="0"/>
</linearGradient>
<linearGradient id="paint21_linear_1205_416" x1="89.5" y1="0" x2="89.5" y2="179" gradientUnits="userSpaceOnUse">
<stop stop-color="#10A37F"/>
<stop offset="1" stop-color="#10A37F" stop-opacity="0"/>
</linearGradient>
<linearGradient id="paint22_linear_1205_416" x1="89.5" y1="0" x2="89.5" y2="179" gradientUnits="userSpaceOnUse">
<stop stop-color="#10A37F"/>
<stop offset="1" stop-color="#10A37F" stop-opacity="0"/>
</linearGradient>
<linearGradient id="paint23_linear_1205_416" x1="89.5" y1="0" x2="89.5" y2="179" gradientUnits="userSpaceOnUse">
<stop stop-color="#10A37F"/>
<stop offset="1" stop-color="#10A37F" stop-opacity="0"/>
</linearGradient>
<linearGradient id="paint24_linear_1205_416" x1="89.5" y1="0" x2="89.5" y2="179" gradientUnits="userSpaceOnUse">
<stop stop-color="#10A37F"/>
<stop offset="1" stop-color="#10A37F" stop-opacity="0"/>
</linearGradient>
<linearGradient id="paint25_linear_1205_416" x1="89.5" y1="0" x2="89.5" y2="179" gradientUnits="userSpaceOnUse">
<stop stop-color="#10A37F"/>
<stop offset="1" stop-color="#10A37F" stop-opacity="0"/>
</linearGradient>
<linearGradient id="paint26_linear_1205_416" x1="89.5" y1="0" x2="89.5" y2="179" gradientUnits="userSpaceOnUse">
<stop stop-color="#10A37F"/>
<stop offset="1" stop-color="#10A37F" stop-opacity="0"/>
</linearGradient>
<linearGradient id="paint27_linear_1205_416" x1="89.5" y1="0" x2="89.5" y2="179" gradientUnits="userSpaceOnUse">
<stop stop-color="#10A37F"/>
<stop offset="1" stop-color="#10A37F" stop-opacity="0"/>
</linearGradient>
<linearGradient id="paint28_linear_1205_416" x1="89.5" y1="0" x2="89.5" y2="179" gradientUnits="userSpaceOnUse">
<stop stop-color="#10A37F"/>
<stop offset="1" stop-color="#10A37F" stop-opacity="0"/>
</linearGradient>
<linearGradient id="paint29_linear_1205_416" x1="89.5" y1="0" x2="89.5" y2="179" gradientUnits="userSpaceOnUse">
<stop stop-color="#10A37F"/>
<stop offset="1" stop-color="#10A37F" stop-opacity="0"/>
</linearGradient>
<linearGradient id="paint30_linear_1205_416" x1="89.5" y1="0" x2="89.5" y2="179" gradientUnits="userSpaceOnUse">
<stop stop-color="#10A37F"/>
<stop offset="1" stop-color="#10A37F" stop-opacity="0"/>
</linearGradient>
<linearGradient id="paint31_linear_1205_416" x1="89.5" y1="0" x2="89.5" y2="179" gradientUnits="userSpaceOnUse">
<stop stop-color="#10A37F"/>
<stop offset="1" stop-color="#10A37F" stop-opacity="0"/>
</linearGradient>
<linearGradient id="paint32_linear_1205_416" x1="89.5" y1="0" x2="89.5" y2="179" gradientUnits="userSpaceOnUse">
<stop stop-color="#10A37F"/>
<stop offset="1" stop-color="#10A37F" stop-opacity="0"/>
</linearGradient>
<linearGradient id="paint33_linear_1205_416" x1="89.5" y1="0" x2="89.5" y2="179" gradientUnits="userSpaceOnUse">
<stop stop-color="#10A37F"/>
<stop offset="1" stop-color="#10A37F" stop-opacity="0"/>
</linearGradient>
<linearGradient id="paint34_linear_1205_416" x1="89.5" y1="0" x2="89.5" y2="179" gradientUnits="userSpaceOnUse">
<stop stop-color="#10A37F"/>
<stop offset="1" stop-color="#10A37F" stop-opacity="0"/>
</linearGradient>
<linearGradient id="paint35_linear_1205_416" x1="89.5" y1="0" x2="89.5" y2="179" gradientUnits="userSpaceOnUse">
<stop stop-color="#10A37F"/>
<stop offset="1" stop-color="#10A37F" stop-opacity="0"/>
</linearGradient>
<linearGradient id="paint36_linear_1205_416" x1="89.5" y1="0" x2="89.5" y2="179" gradientUnits="userSpaceOnUse">
<stop stop-color="#10A37F"/>
<stop offset="1" stop-color="#10A37F" stop-opacity="0"/>
</linearGradient>
<linearGradient id="paint37_linear_1205_416" x1="89.5" y1="0" x2="89.5" y2="179" gradientUnits="userSpaceOnUse">
<stop stop-color="#10A37F"/>
<stop offset="1" stop-color="#10A37F" stop-opacity="0"/>
</linearGradient>
<linearGradient id="paint38_linear_1205_416" x1="89.5" y1="0" x2="89.5" y2="179" gradientUnits="userSpaceOnUse">
<stop stop-color="#10A37F"/>
<stop offset="1" stop-color="#10A37F" stop-opacity="0"/>
</linearGradient>
<linearGradient id="paint39_linear_1205_416" x1="89.5" y1="0" x2="89.5" y2="179" gradientUnits="userSpaceOnUse">
<stop stop-color="#10A37F"/>
<stop offset="1" stop-color="#10A37F" stop-opacity="0"/>
</linearGradient>
<linearGradient id="paint40_linear_1205_416" x1="89.5" y1="0" x2="89.5" y2="179" gradientUnits="userSpaceOnUse">
<stop stop-color="#10A37F"/>
<stop offset="1" stop-color="#10A37F" stop-opacity="0"/>
</linearGradient>
<linearGradient id="paint41_linear_1205_416" x1="89.5" y1="0" x2="89.5" y2="179" gradientUnits="userSpaceOnUse">
<stop stop-color="#10A37F"/>
<stop offset="1" stop-color="#10A37F" stop-opacity="0"/>
</linearGradient>
<linearGradient id="paint42_linear_1205_416" x1="89.5" y1="0" x2="89.5" y2="179" gradientUnits="userSpaceOnUse">
<stop stop-color="#10A37F"/>
<stop offset="1" stop-color="#10A37F" stop-opacity="0"/>
</linearGradient>
<linearGradient id="paint43_linear_1205_416" x1="89.5" y1="0" x2="89.5" y2="179" gradientUnits="userSpaceOnUse">
<stop stop-color="#10A37F"/>
<stop offset="1" stop-color="#10A37F" stop-opacity="0"/>
</linearGradient>
<linearGradient id="paint44_linear_1205_416" x1="89.5" y1="0" x2="89.5" y2="179" gradientUnits="userSpaceOnUse">
<stop stop-color="#10A37F"/>
<stop offset="1" stop-color="#10A37F" stop-opacity="0"/>
</linearGradient>
<linearGradient id="paint45_linear_1205_416" x1="89.5" y1="0" x2="89.5" y2="179" gradientUnits="userSpaceOnUse">
<stop stop-color="#10A37F"/>
<stop offset="1" stop-color="#10A37F" stop-opacity="0"/>
</linearGradient>
<linearGradient id="paint46_linear_1205_416" x1="89.5" y1="0" x2="89.5" y2="179" gradientUnits="userSpaceOnUse">
<stop stop-color="#10A37F"/>
<stop offset="1" stop-color="#10A37F" stop-opacity="0"/>
</linearGradient>
<linearGradient id="paint47_linear_1205_416" x1="89.5" y1="0" x2="89.5" y2="179" gradientUnits="userSpaceOnUse">
<stop stop-color="#10A37F"/>
<stop offset="1" stop-color="#10A37F" stop-opacity="0"/>
</linearGradient>
<linearGradient id="paint48_linear_1205_416" x1="89.5" y1="0" x2="89.5" y2="179" gradientUnits="userSpaceOnUse">
<stop stop-color="#10A37F"/>
<stop offset="1" stop-color="#10A37F" stop-opacity="0"/>
</linearGradient>
<linearGradient id="paint49_linear_1205_416" x1="89.5" y1="0" x2="89.5" y2="179" gradientUnits="userSpaceOnUse">
<stop stop-color="#10A37F"/>
<stop offset="1" stop-color="#10A37F" stop-opacity="0"/>
</linearGradient>
<linearGradient id="paint50_linear_1205_416" x1="89.5" y1="0" x2="89.5" y2="179" gradientUnits="userSpaceOnUse">
<stop stop-color="#10A37F"/>
<stop offset="1" stop-color="#10A37F" stop-opacity="0"/>
</linearGradient>
<linearGradient id="paint51_linear_1205_416" x1="89.5" y1="0" x2="89.5" y2="179" gradientUnits="userSpaceOnUse">
<stop stop-color="#10A37F"/>
<stop offset="1" stop-color="#10A37F" stop-opacity="0"/>
</linearGradient>
<linearGradient id="paint52_linear_1205_416" x1="89.5" y1="0" x2="89.5" y2="179" gradientUnits="userSpaceOnUse">
<stop stop-color="#10A37F"/>
<stop offset="1" stop-color="#10A37F" stop-opacity="0"/>
</linearGradient>
<linearGradient id="paint53_linear_1205_416" x1="89.5" y1="0" x2="89.5" y2="179" gradientUnits="userSpaceOnUse">
<stop stop-color="#10A37F"/>
<stop offset="1" stop-color="#10A37F" stop-opacity="0"/>
</linearGradient>
<linearGradient id="paint54_linear_1205_416" x1="89.5" y1="0" x2="89.5" y2="179" gradientUnits="userSpaceOnUse">
<stop stop-color="#10A37F"/>
<stop offset="1" stop-color="#10A37F" stop-opacity="0"/>
</linearGradient>
<linearGradient id="paint55_linear_1205_416" x1="89.5" y1="0" x2="89.5" y2="179" gradientUnits="userSpaceOnUse">
<stop stop-color="#10A37F"/>
<stop offset="1" stop-color="#10A37F" stop-opacity="0"/>
</linearGradient>
<linearGradient id="paint56_linear_1205_416" x1="89.5" y1="0" x2="89.5" y2="179" gradientUnits="userSpaceOnUse">
<stop stop-color="#10A37F"/>
<stop offset="1" stop-color="#10A37F" stop-opacity="0"/>
</linearGradient>
<linearGradient id="paint57_linear_1205_416" x1="89.5" y1="0" x2="89.5" y2="179" gradientUnits="userSpaceOnUse">
<stop stop-color="#10A37F"/>
<stop offset="1" stop-color="#10A37F" stop-opacity="0"/>
</linearGradient>
<linearGradient id="paint58_linear_1205_416" x1="89.5" y1="0" x2="89.5" y2="179" gradientUnits="userSpaceOnUse">
<stop stop-color="#10A37F"/>
<stop offset="1" stop-color="#10A37F" stop-opacity="0"/>
</linearGradient>
<linearGradient id="paint59_linear_1205_416" x1="89.5" y1="0" x2="89.5" y2="179" gradientUnits="userSpaceOnUse">
<stop stop-color="#10A37F"/>
<stop offset="1" stop-color="#10A37F" stop-opacity="0"/>
</linearGradient>
<linearGradient id="paint60_linear_1205_416" x1="89.5" y1="0" x2="89.5" y2="179" gradientUnits="userSpaceOnUse">
<stop stop-color="#10A37F"/>
<stop offset="1" stop-color="#10A37F" stop-opacity="0"/>
</linearGradient>
<linearGradient id="paint61_linear_1205_416" x1="89.5" y1="0" x2="89.5" y2="179" gradientUnits="userSpaceOnUse">
<stop stop-color="#10A37F"/>
<stop offset="1" stop-color="#10A37F" stop-opacity="0"/>
</linearGradient>
<linearGradient id="paint62_linear_1205_416" x1="89.5" y1="0" x2="89.5" y2="179" gradientUnits="userSpaceOnUse">
<stop stop-color="#10A37F"/>
<stop offset="1" stop-color="#10A37F" stop-opacity="0"/>
</linearGradient>
<linearGradient id="paint63_linear_1205_416" x1="89.5" y1="0" x2="89.5" y2="179" gradientUnits="userSpaceOnUse">
<stop stop-color="#10A37F"/>
<stop offset="1" stop-color="#10A37F" stop-opacity="0"/>
</linearGradient>
<linearGradient id="paint64_linear_1205_416" x1="89.5" y1="0" x2="89.5" y2="179" gradientUnits="userSpaceOnUse">
<stop stop-color="#10A37F"/>
<stop offset="1" stop-color="#10A37F" stop-opacity="0"/>
</linearGradient>
<linearGradient id="paint65_linear_1205_416" x1="89.5" y1="0" x2="89.5" y2="179" gradientUnits="userSpaceOnUse">
<stop stop-color="#10A37F"/>
<stop offset="1" stop-color="#10A37F" stop-opacity="0"/>
</linearGradient>
<linearGradient id="paint66_linear_1205_416" x1="89.5" y1="0" x2="89.5" y2="179" gradientUnits="userSpaceOnUse">
<stop stop-color="#10A37F"/>
<stop offset="1" stop-color="#10A37F" stop-opacity="0"/>
</linearGradient>
<linearGradient id="paint67_linear_1205_416" x1="89.5" y1="0" x2="89.5" y2="179" gradientUnits="userSpaceOnUse">
<stop stop-color="#10A37F"/>
<stop offset="1" stop-color="#10A37F" stop-opacity="0"/>
</linearGradient>
<linearGradient id="paint68_linear_1205_416" x1="89.5" y1="0" x2="89.5" y2="179" gradientUnits="userSpaceOnUse">
<stop stop-color="#10A37F"/>
<stop offset="1" stop-color="#10A37F" stop-opacity="0"/>
</linearGradient>
<linearGradient id="paint69_linear_1205_416" x1="89.5" y1="0" x2="89.5" y2="179" gradientUnits="userSpaceOnUse">
<stop stop-color="#10A37F"/>
<stop offset="1" stop-color="#10A37F" stop-opacity="0"/>
</linearGradient>
<linearGradient id="paint70_linear_1205_416" x1="89.5" y1="0" x2="89.5" y2="179" gradientUnits="userSpaceOnUse">
<stop stop-color="#10A37F"/>
<stop offset="1" stop-color="#10A37F" stop-opacity="0"/>
</linearGradient>
<linearGradient id="paint71_linear_1205_416" x1="89.5" y1="0" x2="89.5" y2="179" gradientUnits="userSpaceOnUse">
<stop stop-color="#10A37F"/>
<stop offset="1" stop-color="#10A37F" stop-opacity="0"/>
</linearGradient>
<linearGradient id="paint72_linear_1205_416" x1="89.5" y1="0" x2="89.5" y2="179" gradientUnits="userSpaceOnUse">
<stop stop-color="#10A37F"/>
<stop offset="1" stop-color="#10A37F" stop-opacity="0"/>
</linearGradient>
<linearGradient id="paint73_linear_1205_416" x1="89.5" y1="0" x2="89.5" y2="179" gradientUnits="userSpaceOnUse">
<stop stop-color="#10A37F"/>
<stop offset="1" stop-color="#10A37F" stop-opacity="0"/>
</linearGradient>
<linearGradient id="paint74_linear_1205_416" x1="89.5" y1="0" x2="89.5" y2="179" gradientUnits="userSpaceOnUse">
<stop stop-color="#10A37F"/>
<stop offset="1" stop-color="#10A37F" stop-opacity="0"/>
</linearGradient>
<linearGradient id="paint75_linear_1205_416" x1="89.5" y1="0" x2="89.5" y2="179" gradientUnits="userSpaceOnUse">
<stop stop-color="#10A37F"/>
<stop offset="1" stop-color="#10A37F" stop-opacity="0"/>
</linearGradient>
<linearGradient id="paint76_linear_1205_416" x1="89.5" y1="0" x2="89.5" y2="179" gradientUnits="userSpaceOnUse">
<stop stop-color="#10A37F"/>
<stop offset="1" stop-color="#10A37F" stop-opacity="0"/>
</linearGradient>
<linearGradient id="paint77_linear_1205_416" x1="89.5" y1="0" x2="89.5" y2="179" gradientUnits="userSpaceOnUse">
<stop stop-color="#10A37F"/>
<stop offset="1" stop-color="#10A37F" stop-opacity="0"/>
</linearGradient>
<linearGradient id="paint78_linear_1205_416" x1="89.5" y1="0" x2="89.5" y2="179" gradientUnits="userSpaceOnUse">
<stop stop-color="#10A37F"/>
<stop offset="1" stop-color="#10A37F" stop-opacity="0"/>
</linearGradient>
<linearGradient id="paint79_linear_1205_416" x1="89.5" y1="0" x2="89.5" y2="179" gradientUnits="userSpaceOnUse">
<stop stop-color="#10A37F"/>
<stop offset="1" stop-color="#10A37F" stop-opacity="0"/>
</linearGradient>
<linearGradient id="paint80_linear_1205_416" x1="89.5" y1="0" x2="89.5" y2="179" gradientUnits="userSpaceOnUse">
<stop stop-color="#10A37F"/>
<stop offset="1" stop-color="#10A37F" stop-opacity="0"/>
</linearGradient>
<linearGradient id="paint81_linear_1205_416" x1="89.5" y1="0" x2="89.5" y2="179" gradientUnits="userSpaceOnUse">
<stop stop-color="#10A37F"/>
<stop offset="1" stop-color="#10A37F" stop-opacity="0"/>
</linearGradient>
<linearGradient id="paint82_linear_1205_416" x1="89.5" y1="0" x2="89.5" y2="179" gradientUnits="userSpaceOnUse">
<stop stop-color="#10A37F"/>
<stop offset="1" stop-color="#10A37F" stop-opacity="0"/>
</linearGradient>
<linearGradient id="paint83_linear_1205_416" x1="89.5" y1="0" x2="89.5" y2="179" gradientUnits="userSpaceOnUse">
<stop stop-color="#10A37F"/>
<stop offset="1" stop-color="#10A37F" stop-opacity="0"/>
</linearGradient>
<linearGradient id="paint84_linear_1205_416" x1="89.5" y1="0" x2="89.5" y2="179" gradientUnits="userSpaceOnUse">
<stop stop-color="#10A37F"/>
<stop offset="1" stop-color="#10A37F" stop-opacity="0"/>
</linearGradient>
<linearGradient id="paint85_linear_1205_416" x1="89.5" y1="0" x2="89.5" y2="179" gradientUnits="userSpaceOnUse">
<stop stop-color="#10A37F"/>
<stop offset="1" stop-color="#10A37F" stop-opacity="0"/>
</linearGradient>
<linearGradient id="paint86_linear_1205_416" x1="89.5" y1="0" x2="89.5" y2="179" gradientUnits="userSpaceOnUse">
<stop stop-color="#10A37F"/>
<stop offset="1" stop-color="#10A37F" stop-opacity="0"/>
</linearGradient>
<linearGradient id="paint87_linear_1205_416" x1="89.5" y1="0" x2="89.5" y2="179" gradientUnits="userSpaceOnUse">
<stop stop-color="#10A37F"/>
<stop offset="1" stop-color="#10A37F" stop-opacity="0"/>
</linearGradient>
</defs>
</svg>
