<svg width="132" height="179" viewBox="0 0 132 179" fill="none" xmlns="http://www.w3.org/2000/svg">
<path d="M1.17278 155.398L1.82603 155.341L1.82569 155.337L1.82454 155.324L1.81995 155.268C1.81593 155.218 1.81004 155.144 1.80266 155.046C1.7879 154.851 1.76721 154.562 1.74366 154.189C1.69655 153.445 1.63801 152.368 1.59257 151.043C1.50166 148.393 1.46339 144.755 1.67328 140.801C1.8833 136.845 2.34107 132.587 3.23723 128.692C4.13579 124.787 5.46259 121.303 7.37522 118.85C11.1845 113.964 17.5074 112.911 24.187 111.831L24.3184 111.81C30.828 110.758 37.6691 109.653 41.8237 104.324C45.9783 98.9954 45.3817 92.0913 44.814 85.5217L44.8026 85.3891C44.2202 78.648 43.6998 72.259 47.5091 67.3732C51.3183 62.4873 57.6413 61.4337 64.3208 60.3544L64.4523 60.3331C70.9619 59.2814 77.803 58.1761 81.9576 52.8473C86.1122 47.5184 85.5156 40.6144 84.9479 34.0448L84.9364 33.9122C84.3541 27.1711 83.8337 20.7821 87.6429 15.8963C89.5555 13.4431 92.6102 11.3067 96.1784 9.48279C99.7371 7.66377 103.755 6.18135 107.54 5.0127C111.324 3.84477 114.861 2.99459 117.454 2.43639C118.749 2.15738 119.808 1.95155 120.541 1.81565C120.908 1.74769 121.194 1.69723 121.387 1.66383C121.484 1.64714 121.557 1.63471 121.606 1.62651L121.661 1.61735L121.678 1.61461L121.574 0.967208L121.479 0.380263C121.469 0.319952 121.469 0.319999 121.469 0.319999L121.464 0.320839L121.449 0.323323L121.39 0.333065C121.339 0.341658 121.263 0.354485 121.164 0.371605C120.965 0.405849 120.675 0.457248 120.302 0.526216C119.558 0.664139 118.487 0.872428 117.178 1.1544C114.56 1.71814 110.983 2.57747 107.154 3.75967C103.326 4.94118 99.2312 6.44957 95.5815 8.31514C91.9414 10.1758 88.692 12.4179 86.6087 15.0899C82.4541 20.4188 83.0507 27.3229 83.6184 33.8924L83.6299 34.025C84.2122 40.7661 84.7326 47.1551 80.9234 52.041C77.1141 56.9268 70.7912 57.9804 64.1116 59.0598L63.9802 59.081C57.4706 60.1327 50.6295 61.238 46.4749 66.5669C42.3203 71.8957 42.9169 78.7998 43.4846 85.3693L43.4961 85.5019C44.0784 92.243 44.5988 98.632 40.7895 103.518C36.9803 108.404 30.6573 109.457 23.9778 110.537L23.8464 110.558C17.3367 111.61 10.4956 112.715 6.34102 118.044C4.25774 120.716 2.87592 124.414 1.95925 128.398C1.04017 132.392 0.576093 136.732 0.363758 140.732C0.151296 144.734 0.190158 148.412 0.281969 151.088C0.327892 152.427 0.387102 153.516 0.434911 154.272C0.458817 154.65 0.479876 154.944 0.495006 155.145C0.502572 155.245 0.508655 155.322 0.51287 155.374L0.517746 155.433L0.519391 155.453C0.519391 155.453 0.519533 155.454 1.17278 155.398Z" fill="#9773FE"/>
<path d="M27.0601 175.581L27.7134 175.524L27.713 175.521L27.7119 175.507L27.7073 175.451C27.7033 175.401 27.6974 175.327 27.69 175.229C27.6752 175.034 27.6546 174.745 27.631 174.372C27.5839 173.628 27.5253 172.551 27.4799 171.226C27.389 168.576 27.3507 164.938 27.5606 160.984C27.7706 157.028 28.2284 152.77 29.1246 148.875C30.0231 144.97 31.3499 141.486 33.2626 139.033C37.0718 134.147 43.3948 133.094 50.0743 132.014L50.2057 131.993C56.7154 130.941 63.5565 129.836 67.7111 124.507C71.8657 119.178 71.2691 112.274 70.7014 105.705L70.6899 105.572C70.1076 98.831 69.5872 92.442 73.3964 87.5562C77.2056 82.6703 83.5286 81.6167 90.2082 80.5374L90.3396 80.5161C96.8492 79.4644 103.69 78.3591 107.845 73.0303C112 67.7014 111.403 60.7974 110.835 54.2278L110.824 54.0952C110.241 47.3541 109.721 40.9651 113.53 36.0793C115.443 33.6261 118.498 31.4897 122.066 29.6658C125.624 27.8468 129.642 26.3644 133.428 25.1957C137.211 24.0278 140.749 23.1776 143.341 22.6194C144.637 22.3404 145.695 22.1346 146.429 21.9987C146.795 21.9307 147.081 21.8802 147.274 21.8468C147.371 21.8301 147.444 21.8177 147.494 21.8095L147.549 21.8004L147.566 21.7976L147.462 21.1502C147.357 20.5029 147.357 20.503 147.357 20.503L147.351 20.5038L147.336 20.5063L147.278 20.5161C147.226 20.5247 147.15 20.5375 147.051 20.5546C146.853 20.5889 146.562 20.6403 146.19 20.7092C145.445 20.8471 144.374 21.0554 143.065 21.3374C140.447 21.9011 136.871 22.7605 133.041 23.9427C129.214 25.1242 125.119 26.6326 121.469 28.4981C117.829 30.3588 114.579 32.6009 112.496 35.273C108.341 40.6018 108.938 47.5059 109.506 54.0754L109.517 54.208C110.1 60.9491 110.62 67.3381 106.811 72.224C103.001 77.1098 96.6785 78.1634 89.999 79.2428L89.8676 79.264C83.358 80.3157 76.5168 81.421 72.3622 86.7499C68.2076 92.0787 68.8042 98.9828 69.3719 105.552L69.3834 105.685C69.9657 112.426 70.4861 118.815 66.6769 123.701C62.8676 128.587 56.5447 129.64 49.8651 130.72L49.7337 130.741C43.2241 131.793 36.383 132.898 32.2284 138.227C30.1451 140.899 28.7633 144.597 27.8466 148.581C26.9275 152.575 26.4634 156.915 26.2511 160.915C26.0386 164.917 26.0775 168.595 26.1693 171.271C26.2152 172.61 26.2744 173.699 26.3223 174.455C26.3462 174.833 26.3672 175.127 26.3823 175.328C26.3899 175.428 26.396 175.505 26.4002 175.557L26.4051 175.616L26.4064 175.632L26.4067 175.636C26.4067 175.636 26.4069 175.637 27.0601 175.581Z" fill="#9773FE"/>
<path d="M53.6005 195.707L52.9473 195.764C52.294 195.82 52.294 195.82 52.294 195.82L52.2935 195.815L52.2922 195.799L52.2874 195.74C52.2831 195.688 52.2771 195.611 52.2695 195.511C52.2544 195.31 52.2333 195.016 52.2094 194.638C52.1616 193.882 52.1024 192.793 52.0565 191.454C51.9647 188.778 51.9258 185.1 52.1383 181.097C52.3506 177.097 52.8147 172.758 53.7337 168.764C54.6504 164.78 56.0322 161.082 58.1155 158.41C62.2701 153.081 69.1112 151.976 75.6209 150.924L75.7523 150.903C82.4318 149.823 88.7548 148.77 92.564 143.884C96.3733 138.998 95.8529 132.609 95.2705 125.868L95.2591 125.735C94.6914 119.166 94.0948 112.262 98.2494 106.933C102.404 101.604 109.245 100.499 115.755 99.4469L115.886 99.4256C122.566 98.3462 128.889 97.2927 132.698 92.4068C136.507 87.521 135.987 81.132 135.404 74.3909L135.393 74.2583C134.825 67.6887 134.229 60.7846 138.383 55.4558C140.466 52.7837 143.716 50.5417 147.356 48.681C151.006 46.8154 155.101 45.307 158.928 44.1255C162.758 42.9433 166.334 42.084 168.952 41.5203C170.262 41.2383 171.333 41.03 172.077 40.8921C172.449 40.8231 172.74 40.7717 172.938 40.7375C173.037 40.7203 173.113 40.7075 173.165 40.6989L173.223 40.6892L173.243 40.686C173.243 40.686 173.244 40.6858 173.349 41.3331L173.453 41.9804L173.449 41.981L173.436 41.9832L173.381 41.9924L173.345 41.9984L173.274 42.0105C173.241 42.0161 173.203 42.0225 173.161 42.0297C172.968 42.0631 172.683 42.1135 172.316 42.1815C171.582 42.3174 170.524 42.5232 169.228 42.8023C166.636 43.3604 163.098 44.2106 159.315 45.3786C155.529 46.5472 151.512 48.0296 147.953 49.8486C144.385 51.6726 141.33 53.8089 139.417 56.2621C135.608 61.148 136.129 67.537 136.711 74.278L136.722 74.4107C137.29 80.9802 137.887 87.8843 133.732 93.2131C129.577 98.542 122.736 99.6473 116.227 100.699L116.095 100.72C109.416 101.8 103.093 102.853 99.2836 107.739C95.4743 112.625 95.9947 119.014 96.5771 125.755L96.5885 125.888C97.1562 132.457 97.7528 139.361 93.5982 144.69C89.4436 150.019 82.6025 151.124 76.0929 152.176L75.9615 152.197C69.2819 153.277 62.959 154.33 59.1497 159.216C57.2371 161.669 55.9103 165.153 55.0117 169.058C54.1156 172.953 53.6578 177.211 53.4478 181.167C53.2379 185.121 53.2762 188.759 53.3671 191.409C53.4125 192.734 53.471 193.811 53.5182 194.555C53.5417 194.927 53.5624 195.217 53.5772 195.412C53.5845 195.51 53.5904 195.584 53.5944 195.634L53.599 195.69L53.6005 195.707Z" fill="#9773FE"/>
<path d="M78.8338 215.946L79.487 215.89L79.4856 215.872L79.481 215.816C79.4769 215.767 79.4711 215.692 79.4637 215.594C79.4489 215.399 79.4282 215.11 79.4047 214.737C79.3576 213.993 79.299 212.916 79.2536 211.592C79.1627 208.941 79.1244 205.303 79.3343 201.349C79.5443 197.393 80.0021 193.135 80.8982 189.24C81.7968 185.335 83.1236 181.851 85.0362 179.398C88.8455 174.512 95.1685 173.459 101.848 172.379L101.979 172.358C108.489 171.307 115.33 170.201 119.485 164.872C123.639 159.544 123.043 152.639 122.475 146.07L122.464 145.937C121.881 139.196 121.361 132.807 125.17 127.921C128.979 123.036 135.302 121.982 141.982 120.903L142.113 120.881C148.623 119.83 155.464 118.724 159.619 113.395C163.773 108.067 163.177 101.163 162.609 94.5931L162.597 94.4604C162.015 87.7193 161.495 81.3303 165.304 76.4445C167.217 73.9913 170.271 71.8549 173.839 70.031C177.398 68.212 181.416 66.7296 185.201 65.5609C188.985 64.393 192.522 63.5428 195.115 62.9846C196.41 62.7056 197.469 62.4998 198.202 62.3639C198.569 62.2959 198.855 62.2455 199.048 62.2121C199.145 62.1954 199.218 62.1829 199.267 62.1747L199.322 62.1656L199.336 62.1634L199.339 62.1628L199.235 61.5154C199.131 60.8681 199.13 60.8682 199.13 60.8682L199.125 60.8691L199.11 60.8716L199.051 60.8813C199 60.8899 198.924 60.9027 198.825 60.9198C198.626 60.9541 198.336 61.0055 197.963 61.0744C197.219 61.2124 196.148 61.4207 194.839 61.7026C192.221 62.2664 188.644 63.1257 184.815 64.3079C180.987 65.4894 176.892 66.9978 173.243 68.8634C169.602 70.724 166.353 72.9661 164.27 75.6382C160.115 80.967 160.712 87.8711 161.279 94.4407L161.291 94.5733C161.873 101.314 162.394 107.703 158.584 112.589C154.775 117.475 148.452 118.529 141.773 119.608L141.641 119.629C135.132 120.681 128.291 121.786 124.136 127.115C119.981 132.444 120.578 139.348 121.146 145.918L121.157 146.05C121.739 152.791 122.26 159.18 118.451 164.066C114.641 168.952 108.318 170.006 101.639 171.085L101.507 171.106C94.9978 172.158 88.1567 173.263 84.002 178.592C81.9188 181.264 80.5369 184.962 79.6203 188.946C78.7012 192.941 78.2371 197.28 78.0248 201.28C77.8123 205.282 77.8512 208.96 77.943 211.637C77.9889 212.975 78.0481 214.065 78.0959 214.82C78.1198 215.198 78.1409 215.493 78.156 215.693C78.1636 215.793 78.1697 215.87 78.1739 215.922L78.1788 215.982L78.1801 215.997L78.1804 216.001C78.1804 216.001 78.1805 216.003 78.8338 215.946Z" fill="#9773FE"/>
</svg>
